<?xml version="1.0" encoding="UTF-8"?>
<svg id="Calque_2" data-name="Calque 2" xmlns="http://www.w3.org/2000/svg" viewBox="0 0 2576.21 1120.63">
  <defs>
    <style>
      .cls-1 {
        fill: #fff;
      }

      .cls-2 {
        fill: #76ba49;
      }

      .cls-3 {
        fill: #f56807;
      }
    </style>
  </defs>
  <g id="Calque_1-2" data-name="Calque 1">
    <g>
      <path class="cls-2" d="M1769.54,335.27c0,6.83,0,13.66,0,20.49-.05,63.15.04,126.3-.22,189.45-.15,36.68-12.29,49.91-44.6,49.67-32.88-.24-46.17-14.62-46.22-50.99-.16-111.33.06-222.65-.31-333.98-.06-17.47,2.59-32.63,20.1-40.76,17.75-8.24,48.9-4.95,60.55,7.89,16.16,17.81,31.34,36.56,46.25,55.46,45.95,58.27,91.55,116.82,137.32,175.23,4.75,6.07,9.71,11.98,18.13,22.35.65-11.63,1.34-18.23,1.35-24.82.06-65.1-.03-130.21.01-195.31.02-34.2,11.2-44.21,48.89-44.11,31.71.08,43.22,11.59,43.23,43.92.04,111.98-.01,223.96-.13,335.93-.03,27.1-8.11,41.59-25.86,47.48-22.89,7.61-46.49,1.4-61.53-17.5-59.96-75.39-119.61-151.03-179.42-226.55-4.2-5.3-8.73-10.34-13.11-15.5-1.48.55-2.96,1.09-4.45,1.64Z"/>
      <path class="cls-3" d="M.06,378.07c0-56.59-.16-113.18.07-169.77.12-30.09,11.12-41.99,40.87-42.15,53.97-.3,108.11-2.12,161.88,1.38,119.62,7.79,193.98,93.97,189.64,213.75-2.31,63.69-16.95,121.01-69.46,162.75-39.63,31.5-85.29,47.02-135.38,48.38-48.1,1.31-96.26,1.17-144.39.59-31.03-.37-42.91-13.36-43.07-45.15-.28-56.59-.08-113.18-.08-169.77H.06ZM94.57,245.75c0,87.39-.15,173.12.58,258.85.03,3.25,8.6,9.26,13.12,9.19,29.89-.43,60.08.11,89.57-4.03,44.08-6.2,77.61-30.61,88.4-74.63,7.24-29.56,9.51-61.87,6.27-92.12-5.81-54.21-45.01-91.22-99.35-96.69-31.49-3.17-63.55-.58-98.59-.58Z"/>
      <path class="cls-3" d="M706.02,514.2c64.98,0,124.79-.08,184.6.03,33.14.06,45.62,14.6,41.55,47.92-2.36,19.3-12.2,30.23-31.71,30.37-95.66.65-191.34,1.19-286.99.22-32.62-.33-49.29-32.73-32.48-62.26,10.86-19.08,25.27-36.24,38.89-53.64,55.73-71.25,111.78-142.24,167.62-213.39,3.83-4.88,6.93-10.33,12.94-19.39-20.03,0-36.03.03-52.03,0-39.7-.1-79.4-.14-119.1-.39-32.56-.2-46.52-12.25-46.07-39.37.44-26.6,14.78-38.65,47.04-38.68,85.91-.08,171.81-.02,257.72.18,39.84.09,57.14,30.27,35.34,64.37-16.06,25.13-35.33,48.26-53.68,71.89-49.91,64.23-100.11,128.23-150.11,192.39-3.86,4.95-7.12,10.37-13.51,19.76Z"/>
      <path class="cls-2" d="M2121.41,375.93c0-55.29-.07-110.59.03-165.88.06-34.03,11.35-44.22,48.76-44.56,33.4-.3,45.5,10.88,45.57,43.66.2,94.32.52,188.65-.42,282.97-.18,18.47,5.76,22.9,23.25,22.52,50.72-1.1,101.47-.7,152.21-.38,27.66.18,40.52,14.03,39.84,41.34-.61,24.74-11.86,36.76-37.71,37.2-45.52.76-91.07.36-136.6.46-26.67.06-53.34.14-80.01.22-43.45.13-54.75-10.82-54.83-53.63-.1-54.64-.02-109.29-.02-163.93h-.07Z"/>
      <path class="cls-3" d="M535.71,378.47c-.03,56.59.14,113.18-.09,169.77-.13,33.28-14.1,46.42-48.28,46.39-32.34-.03-45.8-13.49-45.81-46.73-.05-111.88.21-223.76.07-335.64-.02-17,.61-36.83,18.33-41.2,18.99-4.68,41-3.48,60.04,1.49,7.55,1.97,14.78,20.88,15.08,32.27,1.51,57.85.7,115.77.67,173.66Z"/>
      <path class="cls-2" d="M2481.21,375.76c0-55.98-.15-111.97.06-167.95.12-32.81,10.46-41.94,46.35-42.07,36.34-.13,48.58,10.2,48.59,42.77.04,112.62-.08,225.24-.57,337.86-.18,41.59-38.31,63.15-75.28,43.08-15.82-8.59-19.28-23.38-19.26-39.88.08-57.94.03-115.87.03-173.81h.09Z"/>
      <g>
        <path class="cls-3" d="M1349.83,356.59c-3.82,16.13-7,29.4-10.11,42.68-4.29,18.29-7.82,36.81-13.08,54.82-3.3,11.28-.7,19.84,6.19,28.45,17.06,21.33,33.88,42.84,50.67,64.38,8.94,11.47,17.29,23.4,26.47,34.68,21.31,26.18,33.17,56.51,41.54,88.84,8.8,33.98,19.39,67.49,28.69,101.34,2.25,8.19,6.61,11.1,14.51,10.17,11.26-1.32,22.5-2.83,33.79-3.76,5.97-.49,12.18-.73,18.01.38,9.07,1.73,17.05,5.9,18.51,16.39,1.43,10.28-4,17.31-12.81,21.09-15.3,6.56-30.79,12.79-46.53,18.2-18.76,6.44-37.79,12.12-56.84,17.63-17.56,5.07-25.47.57-31.17-17.24-15.99-49.96-33.33-99.56-47.24-150.09-9.74-35.38-33.36-59.25-57.87-83.42-34.33-33.88-68.11-68.33-103.05-101.57-17.51-16.66-25.16-34.76-19.96-58.91,7.08-32.91,12.95-66.08,18.93-99.22,2.7-14.99,4.48-30.15,6.51-45.26.4-2.95.06-5.99.06-9.18-21.97,3.3-38.41,18.26-42.69,37.35-5.81,25.95-11.87,51.83-17.84,77.74-.48,2.07-.99,4.15-1.73,6.14-5.64,15.23-18.25,23.08-32,19.99-13.01-2.92-23.13-16.71-21.05-31.63,3.23-23.16,7.26-46.26,12.21-69.11,3.36-15.52,6.99-31.52,14.04-45.53,5.96-11.85,15.28-23.67,26.13-31.09,25.42-17.37,51.78-33.85,79.38-47.36,26.95-13.19,56.42-18.3,85.35-4.62,26.08,12.33,46.17,31.37,58.2,58.13,14.97,33.32,29.52,66.83,45.27,99.77,3.36,7.03,10.27,13.21,16.96,17.65,23.59,15.68,48.03,30.09,71.68,45.71,11.47,7.57,15.58,21.78,10.89,31.56-5.73,11.96-17.87,17.78-32.61,11.71-21.22-8.74-41.19-20.48-62.07-30.13-29.86-13.81-52.07-35.05-66.39-64.68-1.72-3.55-4.75-6.47-8.95-12.02Z"/>
        <path class="cls-1" d="M1461.12,626.61c-10.98-17.94-21.58-34.63-31.22-51.84-1.07-1.92,2.32-8.24,5.21-10.18,21.77-14.62,39.78-33.05,56.11-53.32,11.29-14.01,22.94-27.74,33.84-42.04,7.78-10.21,14.57-20.95,10.61-35.21-1.01-3.64,1.08-8.28,2.17-12.35,29.63-110.13,4.9-205.9-78-284.59-18.14-17.22-42.2-28.18-63.42-42.18-3.03-2-6.7-4.45-7.94-7.54-12.24-30.56-33.8-49.65-66.88-53.46-33.25-3.83-58.38,10.2-76.79,37.61-1.88,2.8-5.73,5.44-9.02,5.98-63.08,10.34-112.82,42.75-151.51,92.54-26.63,34.27-46.5,72.15-53.86,115.55-13.65,80.48,1.13,154.95,51.2,220.1,17.97,23.38,41.28,42.63,61.76,64.15,2.54,2.66,4.47,8.23,3.5,11.51-4.64,15.61-10.63,30.81-15.62,46.32-2.95,9.18-7.35,9.54-14.79,4.69-29.34-19.12-55.65-41.63-77.74-68.87-39.44-48.63-66.59-103.35-75.82-165.42-17.82-119.86,12.06-224.83,100.9-310.47,43.33-41.77,94.55-69.56,153.12-80.87,32.01-6.18,65.71-7.91,98.31-5.97,136.34,8.11,252.82,111.75,287.98,235.68,30.83,108.69,14.27,210.7-49.58,304.5-23.33,34.27-53.24,61.56-88.11,83.65-1.44.91-3.12,1.44-4.39,2.02Z"/>
        <path class="cls-3" d="M1189.02,502.82c7.82,8.74,13.17,15.72,19.52,21.64,15.02,14.03,30.38,27.71,45.88,41.2,5.74,5,6.11,9.67,3.49,16.74-12.67,34.21-24.21,68.84-37.18,102.93-3.57,9.38-9.91,18.01-16.25,25.97-32.01,40.21-64.58,79.99-96.47,120.3-2.53,3.2-3.62,10.95-1.54,13.77,8.54,11.61,18.53,22.16,28.04,33.06,4.18,4.79,9.28,8.98,12.53,14.32,7.1,11.64,1.87,22.97-11.64,23.96-22.56,1.64-44.41.63-62.01-17.63-15.48-16.06-32.63-30.49-48.75-45.95-11.46-11-12.88-23.17-3.75-36.21,7.1-10.14,15.47-19.39,23.1-29.17,29.86-38.28,59.17-77.01,89.65-114.79,19.1-23.68,24.07-52.57,32.28-80.19,7.57-25.45,12.74-51.61,19.04-77.44.81-3.3,2.08-6.49,4.04-12.51Z"/>
        <path class="cls-3" d="M1253.85,111.01c.26-32.73,25.76-58.08,58.1-57.75,35.23.37,61.78,27.38,61.51,62.58-.26,33.6-26.02,58.31-60.32,57.88-35-.44-59.57-26.43-59.28-62.72Z"/>
        <path class="cls-1" d="M1344.4,677.68c-34.83,6.27-67.18,6.93-101.91,3.11,6.12-16.25,11.38-30.68,16.98-44.98,7.35-18.78,7.48-18.08,27.93-18.55,13.7-.32,22.82,3.04,29.27,16.61,6.92,14.56,17.22,27.52,27.74,43.81Z"/>
      </g>
      <path class="cls-1" d="M1757.03,763.14c-79.35,35.98-168.98,80.46-235.86,106.13-128.44,49.3-257.42,98.94-361.67,128.37-149.67,42.26-234.43,32.01-242.28-39.84-1.77-16.2,13.03-45.45,31.52-77.61,6.67,83.74,104.48,94.31,241.67,73.3,137.24-21.02,350.78-104.82,579.49-201.13-4.3,3.59-8.59,7.18-12.89,10.77Z"/>
      <path class="cls-1" d="M1656.02,861.17c-79.35,35.98-168.98,80.46-235.86,106.13-128.44,49.3-257.42,98.94-361.67,128.37-149.67,42.26-234.43,32.01-242.28-39.84-1.77-16.2,13.03-45.45,31.52-77.61,6.67,83.74,104.48,94.31,241.67,73.3,137.24-21.02,350.78-104.82,579.49-201.13-4.3,3.59-8.59,7.18-12.89,10.77Z"/>
    </g>
  </g>
</svg>