<?xml version="1.0" encoding="UTF-8"?>
<svg id="Calque_2" data-name="Calque 2" xmlns="http://www.w3.org/2000/svg" viewBox="0 0 1667.28 1958.82">
  <defs>
    <style>
      .cls-1 {
        fill: #242e30;
      }

      .cls-2 {
        fill: #f56807;
      }
    </style>
  </defs>
  <g id="Calque_1-2" data-name="Calque 1">
    <g>
      <g>
        <path class="cls-2" d="M932.98,623.3c-6.68,28.19-12.23,51.39-17.68,74.6-7.51,31.98-13.66,64.35-22.87,95.83-5.77,19.72-1.23,34.68,10.82,49.73,29.81,37.28,59.23,74.88,88.58,112.53,15.63,20.05,30.23,40.91,46.27,60.61,37.25,45.77,57.98,98.78,72.62,155.29,15.39,59.39,33.9,117.96,50.15,177.14,3.93,14.31,11.55,19.4,25.36,17.78,19.67-2.3,39.32-4.95,59.06-6.56,10.44-.85,21.3-1.27,31.48.67,15.85,3.02,29.8,10.31,32.36,28.65,2.5,17.98-7,30.26-22.39,36.86-26.74,11.47-53.81,22.37-81.33,31.81-32.79,11.25-66.05,21.19-99.36,30.82-30.7,8.87-44.52,1-54.48-30.13-27.94-87.33-58.26-174.02-82.58-262.36-17.03-61.84-58.32-103.56-101.15-145.82-60.01-59.21-119.06-119.43-180.13-177.54-30.6-29.11-43.98-60.76-34.9-102.98,12.38-57.52,22.64-115.51,33.08-173.43,4.73-26.2,7.83-52.71,11.39-79.11.69-5.15.1-10.47.1-16.05-38.4,5.77-67.14,31.91-74.61,65.29-10.15,45.35-20.75,90.6-31.19,135.89-.83,3.62-1.73,7.26-3.02,10.74-9.86,26.62-31.9,40.35-55.93,34.95-22.73-5.11-40.44-29.21-36.8-55.29,5.65-40.48,12.68-80.86,21.34-120.8,5.88-27.13,12.23-55.1,24.54-79.59,10.42-20.72,26.71-41.38,45.68-54.34,44.43-30.35,90.5-59.17,138.76-82.79,47.11-23.06,98.62-31.98,149.19-8.08,45.58,21.55,80.71,54.83,101.72,101.61,26.16,58.24,51.6,116.82,79.14,174.4,5.88,12.29,17.96,23.09,29.65,30.86,41.24,27.42,83.96,52.6,125.29,79.9,20.05,13.24,27.23,38.07,19.04,55.17-10.02,20.91-31.24,31.07-57,20.47-37.1-15.27-72-35.8-108.49-52.66-52.2-24.13-91.01-61.26-116.05-113.06-3-6.21-8.31-11.31-15.64-21.01Z"/>
        <path class="cls-1" d="M1127.51,1095.29c-19.2-31.35-37.72-60.52-54.58-90.62-1.88-3.35,4.05-14.4,9.1-17.79,38.05-25.56,69.53-57.77,98.07-93.2,19.73-24.49,40.1-48.49,59.15-73.49,13.6-17.85,25.46-36.63,18.55-61.55-1.76-6.37,1.88-14.47,3.79-21.58,51.8-192.5,8.57-359.91-136.34-497.45-31.71-30.09-73.76-49.25-110.85-73.73-5.3-3.5-11.71-7.77-13.88-13.18-21.4-53.42-59.09-86.79-116.91-93.45-58.12-6.69-102.04,17.83-134.23,65.75-3.29,4.9-10.01,9.51-15.77,10.45-110.27,18.08-197.21,74.72-264.84,161.75-46.55,59.9-81.28,126.12-94.14,201.98-23.86,140.68,1.98,270.85,89.49,384.73,31.41,40.87,72.16,74.52,107.95,112.13,4.43,4.66,7.81,14.39,6.11,20.12-8.1,27.29-18.59,53.85-27.3,80.97-5.15,16.04-12.85,16.68-25.86,8.2-51.29-33.42-97.28-72.77-135.89-120.37-68.94-85-116.39-180.65-132.53-289.15-31.15-209.51,21.07-393,176.36-542.69C508.73,80.1,598.26,31.52,700.63,11.76c55.95-10.8,114.85-13.83,171.83-10.44,238.31,14.18,441.93,195.33,503.38,411.97,53.9,189.99,24.95,368.29-86.66,532.26-40.77,59.9-93.06,107.61-154.01,146.21-2.52,1.59-5.45,2.52-7.67,3.52Z"/>
        <path class="cls-2" d="M651.9,878.91c13.66,15.29,23.03,27.48,34.11,37.82,26.26,24.52,53.1,48.43,80.2,72.02,10.04,8.74,10.68,16.9,6.11,29.26-22.14,59.79-42.32,120.32-64.98,179.91-6.23,16.39-17.32,31.48-28.4,45.4-55.95,70.29-112.88,139.81-168.62,210.27-4.42,5.59-6.32,19.14-2.7,24.06,14.93,20.3,32.4,38.73,49.01,57.78,7.3,8.37,16.22,15.7,21.91,25.03,12.42,20.35,3.26,40.16-20.35,41.88-39.43,2.87-77.63,1.1-108.39-30.81-27.06-28.07-57.04-53.3-85.21-80.32-20.04-19.22-22.51-40.5-6.56-63.29,12.41-17.73,27.04-33.89,40.38-50.98,52.2-66.92,103.43-134.61,156.71-200.65,33.39-41.39,42.08-91.88,56.43-140.17,13.22-44.49,22.27-90.21,33.29-135.36,1.41-5.77,3.64-11.34,7.07-21.86Z"/>
        <path class="cls-2" d="M765.22,194.04c.45-57.21,45.04-101.52,101.55-100.94,61.59.64,108,47.86,107.52,109.39-.46,58.72-45.48,101.93-105.44,101.18-61.18-.77-104.13-46.2-103.62-109.63Z"/>
        <path class="cls-1" d="M923.5,1184.57c-60.89,10.96-117.43,12.11-178.14,5.44,10.69-28.4,19.89-53.63,29.68-78.63,12.85-32.82,13.07-31.6,48.82-32.43,23.94-.55,39.89,5.31,51.16,29.03,12.09,25.45,30.09,48.1,48.49,76.58Z"/>
      </g>
      <path d="M1644.75,1333.94c-138.7,62.9-295.37,140.64-412.27,185.52-224.51,86.18-449.95,172.94-632.18,224.39-261.61,73.87-409.78,55.96-423.49-69.63-3.09-28.31,22.78-79.45,55.1-135.67,11.66,146.38,182.63,164.85,422.43,128.13,239.89-36.74,613.15-183.23,1012.94-351.57-7.51,6.28-15.02,12.55-22.52,18.83Z"/>
      <path d="M1468.19,1505.3c-138.7,62.9-295.37,140.64-412.27,185.52-224.51,86.18-449.95,172.94-632.18,224.39C162.13,1989.09,13.96,1971.17.25,1845.59c-3.09-28.31,22.78-79.45,55.1-135.67,11.66,146.38,182.63,164.85,422.43,128.13,239.89-36.74,613.15-183.23,1012.94-351.57-7.51,6.28-15.02,12.55-22.52,18.83Z"/>
    </g>
  </g>
</svg>